<svg width="1440" height="259" viewBox="0 0 1440 259" fill="none" xmlns="http://www.w3.org/2000/svg">
<rect x="-0.699219" y="112" width="1450.7" height="147" fill="#E94E0F"/>
<line x1="-1.70734" y1="244.5" x2="1450" y2="244.5" stroke="white" stroke-width="7"/>
<path d="M79.4919 119C79.4919 149.609 54.4637 174.5 23.4959 174.5C-7.47184 174.5 -32.5 149.609 -32.5 119C-32.5 88.3897 -7.47184 63.4996 23.4959 63.4996C54.4637 63.4996 79.4919 88.3897 79.4919 119Z" fill="#005B6A" stroke="#E94E0F" stroke-width="11"/>
<path d="M112.252 192.5C112.252 215.381 93.5408 234 70.374 234C47.2071 234 28.4959 215.381 28.4959 192.5C28.4959 169.618 47.2071 151 70.374 151C93.5408 151 112.252 169.618 112.252 192.5Z" fill="#005B6A" stroke="#E94E0F" stroke-width="10"/>
<path d="M51.7561 179.5C51.7561 202.941 32.5895 222 8.87805 222C-14.8334 222 -34 202.941 -34 179.5C-34 156.058 -14.8334 137 8.87805 137C32.5895 137 51.7561 156.058 51.7561 179.5Z" fill="#005B6A" stroke="#E94E0F" stroke-width="8"/>
<path d="M110.914 158.174C95.3291 174.504 69.3441 175.761 51.9634 160.608C34.0906 145.026 32.1679 118.065 47.5726 100.396C66.6117 78.5579 95.2939 70.2186 122.04 69.5659C135.37 69.2406 148.053 70.8345 158.538 73.5233C169.14 76.2419 177.08 79.9727 181.271 83.6265C182.098 84.3481 182.354 84.8608 182.438 85.1195C182.508 85.3359 182.541 85.6229 182.378 86.1254C181.97 87.3799 180.564 89.2768 177.546 91.8395C172.764 95.9012 165.582 100.328 157.423 105.357C155.461 106.567 153.442 107.811 151.387 109.093C141.04 115.549 129.951 122.871 122.028 131.058C114.637 138.695 109.324 147.812 110.914 158.174Z" fill="#005B6A" stroke="#E94E0F" stroke-width="8"/>
<path d="M191.756 146.5C191.756 169.941 172.59 189 148.878 189C125.167 189 106 169.941 106 146.5C106 123.058 125.167 104 148.878 104C172.59 104 191.756 123.058 191.756 146.5Z" fill="#005B6A" stroke="#E94E0F" stroke-width="8"/>
<path d="M1366.52 122.442C1366.52 91.1463 1392.11 65.7005 1423.77 65.7005C1455.42 65.7005 1481.01 91.1463 1481.01 122.442C1481.01 153.737 1455.42 179.183 1423.77 179.183C1392.11 179.183 1366.52 153.737 1366.52 122.442Z" fill="#005B6A" stroke="#E94E0F" stroke-width="11"/>
<path d="M1333.1 47.4462C1333.1 24.0419 1352.24 5.00002 1375.93 5.00002C1399.63 5.00002 1418.77 24.0419 1418.77 47.4462C1418.77 70.8504 1399.63 89.8923 1375.93 89.8923C1352.24 89.8923 1333.1 70.8504 1333.1 47.4462Z" fill="#005B6A" stroke="#E94E0F" stroke-width="10"/>
<path d="M1394.85 60.7107C1394.85 36.7466 1414.44 17.2646 1438.68 17.2646C1462.92 17.2646 1482.51 36.7466 1482.51 60.7107C1482.51 84.6749 1462.92 104.157 1438.68 104.157C1414.44 104.157 1394.85 84.6749 1394.85 60.7107Z" fill="#005B6A" stroke="#E94E0F" stroke-width="8"/>
<path d="M1334.48 82.4432C1350.41 65.7211 1376.99 64.4265 1394.77 79.9252C1413.04 95.8534 1415.01 123.414 1399.26 141.477C1379.81 163.783 1350.52 172.296 1323.22 172.963C1309.61 173.295 1296.66 171.667 1285.96 168.922C1275.13 166.147 1267.02 162.336 1262.73 158.596C1261.87 157.853 1261.6 157.318 1261.51 157.036C1261.43 156.797 1261.4 156.486 1261.57 155.96C1262 154.657 1263.45 152.709 1266.53 150.092C1271.41 145.944 1278.75 141.423 1287.07 136.291C1289.07 135.057 1291.13 133.788 1293.23 132.481C1303.79 125.893 1315.09 118.427 1323.17 110.082C1330.71 102.286 1336.12 92.9954 1334.48 82.4432Z" fill="#005B6A" stroke="#E94E0F" stroke-width="8"/>
<path d="M1252 94.3822C1252 70.418 1271.59 50.936 1295.83 50.936C1320.07 50.936 1339.66 70.418 1339.66 94.3822C1339.66 118.346 1320.07 137.828 1295.83 137.828C1271.59 137.828 1252 118.346 1252 94.3822Z" fill="#005B6A" stroke="#E94E0F" stroke-width="8"/>
</svg>
