<svg width="1048" height="785" viewBox="0 0 1048 785" fill="none" xmlns="http://www.w3.org/2000/svg">
<path d="M447.139 603.055C405.283 697.256 186.766 741.941 144.806 677.238C138.73 667.869 142.69 655.682 149.333 646.706C320.451 415.484 36.6033 539.437 80.6864 440.226C125.65 339.033 244.134 293.45 345.327 338.414C446.521 383.378 492.103 501.862 447.139 603.055Z" fill="#E94E0F"/>
<path d="M1048 200.5C1048 311.233 847.5 191 847.5 401C736.767 401 874.5 200.5 647 200.5C647 89.7669 736.767 0 847.5 0C958.233 0 805 131 1048 200.5Z" fill="#005B6A"/>
<rect x="225" y="55" width="643" height="701" rx="20" fill="#070707"/>
<rect x="226" y="39" width="641" height="699" rx="19" fill="white" stroke="black" stroke-width="2"/>
</svg>
